<svg width="50" height="30" viewBox="0 0 50 30" fill="none" xmlns="http://www.w3.org/2000/svg">
<path d="M36.5061 21.8242C36.094 21.8242 35.6912 21.6987 35.3486 21.4635C35.006 21.2282 34.739 20.8939 34.5813 20.5027C34.4236 20.1116 34.3824 19.6811 34.4628 19.2659C34.5432 18.8506 34.7416 18.4692 35.0329 18.1698C35.3243 17.8704 35.6955 17.6665 36.0996 17.5839C36.5038 17.5013 36.9227 17.5437 37.3033 17.7057C37.684 17.8677 38.0094 18.1421 38.2383 18.4942C38.4672 18.8462 38.5894 19.2601 38.5894 19.6835C38.5894 20.2513 38.3699 20.7958 37.9792 21.1972C37.5885 21.5987 37.0586 21.8242 36.5061 21.8242ZM13.4939 21.8242C13.0819 21.8242 12.6791 21.6987 12.3365 21.4635C11.9939 21.2282 11.7269 20.8939 11.5692 20.5027C11.4115 20.1116 11.3702 19.6811 11.4506 19.2659C11.531 18.8506 11.7294 18.4692 12.0208 18.1698C12.3121 17.8704 12.6834 17.6665 13.0875 17.5839C13.4916 17.5013 13.9105 17.5437 14.2912 17.7057C14.6719 17.8677 14.9972 18.1421 15.2262 18.4942C15.4551 18.8462 15.5773 19.2601 15.5773 19.6835C15.5773 20.2513 15.3578 20.7958 14.9671 21.1972C14.5764 21.5987 14.0465 21.8242 13.4939 21.8242ZM37.2526 8.937L41.4141 1.53363C41.4803 1.43224 41.5255 1.31796 41.547 1.19787C41.5685 1.07778 41.5657 0.954435 41.5389 0.835479C41.5121 0.716523 41.4619 0.604486 41.3912 0.506309C41.3206 0.408132 41.2311 0.325904 41.1282 0.26472C41.0254 0.203536 40.9114 0.164697 40.7934 0.15061C40.6754 0.136523 40.5558 0.147487 40.442 0.182823C40.3283 0.218159 40.2228 0.277115 40.1321 0.35604C40.0415 0.434964 39.9675 0.532176 39.9149 0.641654L35.7014 8.14047C32.3357 6.58936 28.6887 5.78746 25 5.78746C21.3113 5.78746 17.6643 6.58936 14.2986 8.14047L10.0851 0.641654C10.0325 0.532176 9.95852 0.434964 9.86785 0.35604C9.77719 0.277115 9.67172 0.218159 9.55797 0.182823C9.44423 0.147487 9.32464 0.136523 9.20661 0.15061C9.08857 0.164697 8.97461 0.203536 8.87178 0.26472C8.76894 0.325904 8.67943 0.408132 8.60878 0.506309C8.53814 0.604486 8.48786 0.716523 8.46106 0.835479C8.43426 0.954435 8.43152 1.07778 8.453 1.19787C8.47448 1.31796 8.51973 1.43224 8.58594 1.53363L12.7474 8.937C5.60156 12.9304 0.715278 20.3632 0 29.1447H50C49.2847 20.3632 44.3976 12.9304 37.2526 8.937Z" fill="#273742"/>
</svg>
