<svg width="42" height="42" viewBox="0 0 42 42" fill="none" xmlns="http://www.w3.org/2000/svg">
<path d="M41.824 10.0932C41.824 12.6805 41.824 15.1643 41.824 17.5446C41.824 17.7516 41.7195 18.0621 41.5103 18.0621C39.7326 19.097 38.0595 20.1319 36.2817 21.0633C34.7132 21.8912 34.7132 21.8912 34.7132 20.0284C34.7132 18.269 34.7132 16.5097 34.7132 14.7503C34.7132 14.2329 34.8177 13.9224 35.3406 13.6119C37.2229 12.577 39.0006 11.4386 40.7783 10.4037C41.092 10.3002 41.4057 10.1967 41.824 10.0932Z" fill="#273742"/>
<path d="M40.9875 8.85131C40.1509 9.36876 39.3143 9.78273 38.5823 10.3002C37.3275 11.0246 35.968 11.7491 34.7132 12.4735C34.1903 12.784 33.772 12.784 33.3537 12.4735C31.576 11.5421 29.9029 10.5072 28.1252 9.57575C27.8115 9.36877 27.4977 9.16178 26.9749 8.74782C28.648 7.81639 30.2166 6.88497 31.7852 6.05703C32.0989 5.85005 32.5172 5.64307 32.8309 5.43608C33.6675 4.60815 34.504 4.91863 35.3406 5.43608C37.0137 6.471 38.7915 7.40242 40.4646 8.43734C40.6737 8.54083 40.6737 8.64432 40.9875 8.85131Z" fill="#273742"/>
<path d="M33.2492 21.8912C31.7852 21.0633 30.4257 20.3389 29.1709 19.6144C28.3343 19.2005 27.6023 18.683 26.7657 18.1655C26.3475 17.9586 26.1383 17.6481 26.1383 17.2341C26.1383 15.0608 26.1383 12.991 26.1383 10.8176C26.1383 10.0932 26.2429 9.98971 26.9749 10.3002C28.0206 10.8176 28.9617 11.4386 29.9029 11.9561C30.844 12.4735 31.7852 13.0945 32.7263 13.6119C32.9355 13.7154 33.1446 14.0259 33.1446 14.2329C33.2492 16.7167 33.2492 19.2005 33.2492 21.8912Z" fill="#273742"/>
<path d="M33.2492 31.9299C33.2492 32.1369 33.04 32.4474 32.8309 32.5509C31.1577 33.5858 29.38 34.5172 27.7069 35.4486C25.5109 36.6905 23.2103 38.0359 21.0143 39.2778C20.0732 39.7953 19.0275 40.3128 17.8772 40.9337V37.7255C17.8772 36.4836 17.9817 35.1382 17.8772 33.8963C17.8772 33.1718 18.0863 32.7579 18.7137 32.4474C20.596 31.4125 22.4783 30.3776 24.256 29.3426C26.9749 27.7903 29.5892 26.2379 32.2035 24.6855C32.5172 24.582 32.8309 24.4785 33.2492 24.375C33.2492 27.0658 33.2492 29.5496 33.2492 31.9299Z" fill="#273742"/>
<path d="M32.6217 23.1331C30.6349 24.2716 28.648 25.3065 26.7657 26.4449C24.8835 27.4798 23.0012 28.5147 21.1189 29.6531C19.864 30.3776 18.7137 31.102 17.4589 31.723C17.2497 31.8264 16.936 31.8264 16.7269 31.723C14.74 30.5845 12.7532 29.4461 10.6617 28.4112C10.1389 28.1007 10.0343 27.9973 10.6617 27.6868C13.276 26.2379 15.7857 24.789 18.2955 23.3401C20.4915 22.0982 22.5829 20.8563 24.7789 19.5109C25.3017 19.2005 25.8246 19.2005 26.3475 19.5109C28.3343 20.6494 30.4257 21.8912 32.6217 23.1331Z" fill="#273742"/>
<path d="M16.3086 21.7878C16.3086 22.6157 15.9949 23.0297 15.3675 23.3401C13.5897 24.375 11.812 25.41 9.92975 26.3414C9.7206 26.4449 9.51146 26.4449 9.30232 26.5484C9.30232 26.2379 9.30232 25.9274 9.30232 25.7204C9.30232 20.5459 9.30232 15.3713 9.30232 10.1967C9.30232 9.57575 9.40689 9.16178 10.0343 8.74782C11.9166 7.7129 13.7989 6.57449 15.6812 5.53958C16.0995 5.33259 16.204 5.43608 16.204 5.85005C16.204 6.05703 16.204 6.16053 16.204 6.36751C16.3086 11.5421 16.3086 16.7167 16.3086 21.7878Z" fill="#273742"/>
<path d="M15.5766 4.09069C15.3675 4.19419 15.2629 4.29768 15.1583 4.29768C13.1715 5.43608 11.1846 6.67798 9.19775 7.81639C8.88403 7.91988 8.36117 7.91988 8.15203 7.81639C6.0606 6.67798 4.07375 5.43608 2.08689 4.29768C1.56403 4.09069 1.77317 3.88371 2.08689 3.67673C4.07375 2.53832 6.0606 1.39991 8.15203 0.261505C8.46575 0.0545219 8.9886 0.158013 9.30232 0.364997C11.1846 1.39991 13.1715 2.64181 15.0537 3.78022C15.1583 3.78022 15.2629 3.88371 15.5766 4.09069Z" fill="#273742"/>
<path d="M16.3086 41.1407C15.1583 40.5197 14.3217 40.1058 13.3806 39.5883C11.3937 38.4499 9.51146 37.3115 7.5246 36.1731C5.64232 35.1382 3.76003 34.1033 1.87775 32.9648C1.25032 32.5509 0.832031 32.1369 0.832031 31.309C0.832031 23.0297 0.832031 14.7503 0.832031 6.471C0.832031 6.26402 0.832031 6.16053 0.832031 5.95354C0.832031 5.43608 1.14575 5.33259 1.56403 5.53958C3.44632 6.57449 5.22403 7.7129 7.10632 8.64432C7.73375 9.05829 7.94289 9.47226 7.94289 10.1967C7.94289 12.6805 7.94289 15.2678 7.94289 17.7516C7.94289 20.8563 7.94289 23.8576 7.94289 26.9623C7.94289 27.8938 8.15203 28.5147 9.19775 28.9287C10.7663 29.6531 12.2303 30.5845 13.7989 31.516C14.5309 31.9299 15.2629 32.3439 15.9949 32.8614C16.204 32.9648 16.4132 33.2753 16.4132 33.4823C16.3086 35.9661 16.3086 38.4499 16.3086 41.1407Z" fill="#273742"/>
</svg>
