<svg width="34" height="34" viewBox="0 0 34 34" fill="none" xmlns="http://www.w3.org/2000/svg">
<path d="M10.1451 4.03308C8.83612 4.03308 7.66493 4.03308 6.35595 4.03308C6.35595 4.37719 6.35595 4.65247 6.35595 4.92776C6.28706 5.61598 5.94259 5.96009 5.32255 5.96009C4.08246 5.96009 2.84238 5.96009 1.6023 5.96009C0.913361 5.96009 0.5 5.61598 0.5 4.92776C0.5 3.68897 0.5 2.45018 0.5 1.21139C0.5 0.591994 0.913361 0.179064 1.5334 0.179064C2.77349 0.179064 4.08246 0.179064 5.32255 0.179064C5.94259 0.179064 6.28706 0.523173 6.35595 1.14257C6.35595 1.41785 6.35595 1.76196 6.35595 2.10607C7.87161 2.10607 9.24948 2.10607 10.6962 2.10607C11.7296 2.10607 12.763 2.10607 13.7965 2.10607C14.1409 2.10607 14.3476 2.03725 14.4854 1.69314C15.6566 -0.371509 18.3434 -0.371509 19.5835 1.69314C19.7213 1.89961 19.928 2.10607 20.1347 2.10607C22.5459 2.10607 24.9572 2.10607 27.4374 2.10607C27.5063 2.10607 27.5752 2.10607 27.6441 2.03725C27.6441 1.96843 27.7129 1.89961 27.7129 1.83078C27.7129 0.316708 27.7818 0.179064 29.2975 0.179064C30.3309 0.179064 31.2954 0.179064 32.3288 0.179064C33.0866 0.179064 33.5 0.523173 33.5 1.28021C33.5 2.45018 33.5 3.62015 33.5 4.7213C33.5 5.54716 33.1555 5.89126 32.3288 5.89126C31.1576 5.89126 30.0553 5.89126 28.8841 5.89126C27.9196 5.89126 27.644 5.61598 27.5752 4.65247C27.5752 4.44601 27.5752 4.23954 27.5752 4.03308C26.2662 4.03308 25.095 4.03308 23.786 4.03308C24.2683 4.37719 24.6816 4.7213 25.095 5.0654C27.5063 7.19888 28.953 9.8141 29.3664 13.0487C29.4353 13.5993 29.5731 13.9434 30.1242 14.2187C31.2265 14.8381 31.7088 16.1457 31.3643 17.3845C31.0198 18.6233 29.9175 19.4491 28.6775 19.4491C27.3685 19.518 26.2662 18.6921 25.8528 17.4533C25.4395 16.2145 25.8528 14.9069 26.9551 14.2187C27.5063 13.8746 27.5752 13.5305 27.4374 12.9799C26.6106 8.71295 24.1994 5.82244 19.9969 4.44601C19.6524 4.30837 19.4457 4.37719 19.239 4.7213C17.999 6.30419 15.8633 6.30419 14.6232 4.7213C14.3476 4.37719 14.2098 4.37719 13.7965 4.51483C9.93841 5.6848 6.8382 9.46999 6.49374 13.5993C6.49374 13.8058 6.70042 14.081 6.9071 14.2187C7.9405 14.9069 8.42276 15.8704 8.28497 17.1092C8.14718 18.2792 7.45825 19.0362 6.35595 19.3803C4.90919 19.8621 3.39353 19.1738 2.77349 17.7974C2.15344 16.421 2.70459 14.8381 4.01357 14.1499C4.42693 13.9434 4.49582 13.6681 4.56472 13.2552C5.04697 9.46999 6.8382 6.44184 10.0073 4.23954C10.0073 4.23954 10.0762 4.17072 10.1451 4.03308Z" fill="#273742"/>
<path d="M16.001 8.78178C16.001 9.05706 16.0699 9.1947 16.0699 9.40117C16.0699 12.0164 16.0699 14.6316 16.0699 17.2468C16.0699 17.6598 15.9322 17.8662 15.5877 18.0727C14.4165 18.7609 13.8653 20.0685 14.2098 21.3073C14.5543 22.5461 15.7255 23.4408 17.0344 23.4408C18.3434 23.4408 19.4457 22.5461 19.7902 21.3073C20.1347 20.0685 19.5835 18.7609 18.4812 18.0039C18.2745 17.8662 17.999 17.591 17.999 17.3845C17.999 14.6316 17.999 11.8788 17.999 9.12588C17.999 9.05706 17.999 8.98824 18.0678 8.78178C18.2056 8.98824 18.3434 9.12588 18.4812 9.26353C20.7547 12.7046 23.0971 16.1457 25.3706 19.5868C25.9217 20.4126 25.9217 20.7567 25.2328 21.445C23.6482 23.1655 22.6148 25.2302 22.2015 27.5013C18.8257 27.0883 15.4499 27.0883 12.0741 27.5013C11.8674 26.8819 11.6608 26.1248 11.4541 25.4366C10.9029 23.9225 10.0073 22.5461 8.90501 21.3761C8.35386 20.8256 8.28497 20.4126 8.76722 19.7932C11.1785 16.2145 13.5209 12.6358 15.9322 9.05706C15.7944 8.98824 15.8633 8.91942 16.001 8.78178Z" fill="#273742"/>
<path d="M17.0344 33.1447C15.2432 33.1447 13.452 33.1447 11.5919 33.1447C10.4896 33.1447 10.0762 32.5253 10.5585 31.5618C11.1785 30.2541 12.2119 29.3595 13.7276 29.2906C15.8633 29.2218 17.999 29.2218 20.1347 29.2906C21.6503 29.3595 22.6837 30.2541 23.3727 31.6306C23.786 32.5253 23.3727 33.1447 22.4081 33.1447C20.6169 33.1447 18.8257 33.1447 17.0344 33.1447Z" fill="#273742"/>
<path d="M16.9656 19.5868C17.5167 19.5868 17.9301 19.9309 17.9301 20.4815C17.9301 21.032 17.5856 21.445 16.9656 21.445C16.4144 21.445 16.001 21.032 16.001 20.4815C16.0699 19.9309 16.4833 19.5868 16.9656 19.5868Z" fill="#273742"/>
</svg>
