<svg width="35" height="33" viewBox="0 0 35 33" fill="none" xmlns="http://www.w3.org/2000/svg">
<path d="M17.4846 10.6215C22.8385 10.6215 28.1923 10.6215 33.5769 10.6215C34.5 10.6215 34.5 10.6215 34.5 11.5481C34.5 18.0964 34.5 24.6447 34.5 31.2238C34.5 32.3667 34.2231 32.6447 33.0846 32.6447C22.6846 32.6447 12.3154 32.6447 1.91538 32.6447C0.807692 32.6447 0.5 32.3667 0.5 31.2238C0.5 24.6755 0.5 18.1273 0.5 11.5481C0.5 10.6215 0.5 10.6215 1.48462 10.6215C6.80769 10.6215 12.1615 10.6215 17.4846 10.6215ZM17.4538 25.5095C19.6077 25.5095 21.7615 25.5095 23.9462 25.5095C24.4385 25.5095 24.9615 25.5404 25.4538 25.4786C25.9769 25.4477 26.3154 25.108 26.3154 24.5829C26.3154 24.0578 25.9769 23.7798 25.4846 23.718C25.3 23.6871 25.1462 23.718 24.9615 23.718C19.9769 23.718 14.9923 23.718 10.0077 23.718C9.82308 23.718 9.60769 23.718 9.42308 23.7489C8.96154 23.8416 8.68462 24.1196 8.65385 24.6138C8.65385 25.108 8.93077 25.386 9.39231 25.5095C9.60769 25.5713 9.82308 25.5404 10.0385 25.5404C12.5308 25.5095 14.9923 25.5095 17.4538 25.5095ZM17.4538 29.4941C19.9154 29.4941 22.3769 29.4941 24.8692 29.4941C25.0538 29.4941 25.2692 29.4941 25.4538 29.4941C25.9769 29.4323 26.3154 29.1234 26.3154 28.5674C26.3154 28.0423 25.9769 27.7643 25.4846 27.7026C25.3 27.6717 25.1462 27.7026 24.9615 27.7026C19.9769 27.7026 14.9923 27.7026 10.0077 27.7026C9.82308 27.7026 9.63846 27.7026 9.48462 27.7335C8.99231 27.7952 8.68462 28.1041 8.65385 28.5983C8.65385 29.1234 8.96154 29.4014 9.45385 29.4941C9.66923 29.525 9.88461 29.525 10.1 29.525C12.5615 29.4941 15.0231 29.4941 17.4538 29.4941ZM14.5923 17.6331C14.5923 18.467 14.5923 19.2701 14.5923 20.1041C14.5923 21.0925 14.8692 21.525 15.4846 21.525C16.1308 21.5559 16.4077 21.0925 16.4077 20.0732C16.4077 18.4979 16.4077 18.4979 17.9769 18.5906C18.0077 18.5906 18.0077 18.5906 18.0385 18.5906C18.4077 18.5906 18.5615 18.7759 18.5615 19.1157C18.5615 19.6099 18.5615 20.135 18.5923 20.6292C18.6231 21.1543 18.9308 21.4941 19.4846 21.4941C20.0385 21.4941 20.3462 21.1543 20.3769 20.6292C20.4077 18.6524 20.4077 16.6447 20.3769 14.6678C20.3769 14.1427 20.0692 13.803 19.5154 13.7721C19.0231 13.7412 18.6231 14.1118 18.5923 14.6987C18.5615 15.1929 18.6231 15.6871 18.5615 16.1504C18.5308 16.3358 18.3462 16.6138 18.1923 16.6755C16.8385 17.0462 16.4077 16.7064 16.4077 15.3165C16.4077 15.162 16.4077 15.0076 16.4077 14.8531C16.3769 14.1736 16.0385 13.7721 15.5154 13.7721C14.9615 13.7721 14.6231 14.1736 14.6231 14.8531C14.5923 15.7798 14.5923 16.7064 14.5923 17.6331ZM6.65385 17.6331C6.65385 18.6215 6.65385 19.6099 6.65385 20.6292C6.65385 21.1543 6.99231 21.4941 7.51538 21.525C8.06923 21.525 8.34615 21.2161 8.40769 20.6601C8.43846 20.5365 8.43846 20.3821 8.40769 20.2586C8.34615 19.7026 8.62308 19.4864 9.14615 19.5481C9.3 19.5481 9.45385 19.5481 9.60769 19.5481C11.1769 19.4864 12.3769 18.2199 12.3769 16.6447C12.3769 15.0694 11.1769 13.803 9.60769 13.7721C8.96154 13.7412 8.31538 13.7412 7.7 13.7721C6.93077 13.803 6.62308 14.1118 6.62308 14.884C6.65385 15.7798 6.65385 16.7064 6.65385 17.6331ZM22.5615 17.6022C22.5615 18.6215 22.5615 19.6408 22.5923 20.6601C22.6231 21.1852 22.9308 21.525 23.4846 21.525C24.0077 21.525 24.2846 21.2161 24.3462 20.691C24.3769 20.5674 24.3769 20.413 24.3462 20.2894C24.2846 19.7026 24.5615 19.4864 25.1154 19.5481C25.2692 19.5481 25.4231 19.5481 25.5769 19.5481C27.1154 19.4864 28.2846 18.2199 28.3154 16.6755C28.3154 15.1003 27.1462 13.803 25.5769 13.7721C24.9308 13.7412 24.2538 13.7412 23.6077 13.7721C22.9 13.803 22.5615 14.1118 22.5615 14.8531C22.5308 15.7489 22.5615 16.6755 22.5615 17.6022Z" fill="#273742"/>
<path d="M17.4231 8.70643C12.1 8.70643 6.80769 8.70643 1.48462 8.70643C0.5 8.70643 0.5 8.70643 0.5 7.71801C0.5 5.80295 0.5 3.85701 0.5 1.94195C0.5 0.984422 0.838462 0.644653 1.79231 0.644653C12.2538 0.644653 22.7462 0.644653 33.2077 0.644653C34.1615 0.644653 34.4692 0.984422 34.4692 1.94195C34.4692 3.91878 34.4385 5.89562 34.5 7.84156C34.5 8.5211 34.3154 8.70643 33.6385 8.70643C28.2231 8.70643 22.8385 8.70643 17.4231 8.70643ZM25.3923 5.58674C26.6538 5.58674 27.9154 5.58674 29.1462 5.58674C29.8846 5.58674 30.2846 5.24697 30.2846 4.6601C30.2846 4.10411 29.8846 3.76434 29.2077 3.76434C26.6846 3.76434 24.1923 3.76434 21.6692 3.76434C20.9615 3.76434 20.5923 4.10411 20.5615 4.6601C20.5615 5.21608 20.9615 5.58674 21.7 5.58674C22.9308 5.58674 24.1615 5.58674 25.3923 5.58674ZM6.46923 4.6601C6.46923 4.16589 6.06923 3.79523 5.57692 3.76434C5.08462 3.76434 4.68462 4.16589 4.68462 4.62921C4.68462 5.12342 5.08462 5.55585 5.60769 5.55585C6.06923 5.55585 6.46923 5.15431 6.46923 4.6601ZM10.4385 4.6601C10.4385 4.16589 10.0077 3.79523 9.54615 3.79523C9.05385 3.79523 8.68462 4.19678 8.65385 4.69099C8.65385 5.18519 9.08461 5.61763 9.57692 5.58674C10.0692 5.55585 10.4385 5.12342 10.4385 4.6601ZM14.4077 4.6601C14.4077 4.16589 13.9769 3.79523 13.5154 3.79523C13.0231 3.79523 12.6538 4.19678 12.6538 4.69099C12.6538 5.18519 13.0846 5.61763 13.5769 5.58674C14.0385 5.55585 14.4077 5.12342 14.4077 4.6601Z" fill="#273742"/>
<path d="M8.46923 16.6138C8.46923 15.6253 8.53077 15.5636 9.20769 15.5636C10.0385 15.5636 10.5923 15.996 10.5923 16.6447C10.5923 17.2933 10.0385 17.7257 9.17692 17.7257C8.5 17.7257 8.46923 17.664 8.46923 16.6138Z" fill="#273742"/>
<path d="M25.0846 15.5327C25.9769 15.5636 26.5 15.996 26.4692 16.6447C26.4385 17.3242 25.8538 17.7566 24.9923 17.7257C24.3462 17.6948 24.3462 17.6331 24.3154 16.3358C24.3462 15.6871 24.5923 15.4709 25.0846 15.5327Z" fill="#273742"/>
</svg>
