<svg width="29" height="30" viewBox="0 0 29 30" fill="none" xmlns="http://www.w3.org/2000/svg">
<path d="M10.8335 22.5286C9.85297 23.7092 8.90406 24.9225 7.98678 26.0375C6.50016 24.4962 5.04517 22.9877 3.52691 21.4137C4.60234 20.4627 5.74103 19.4461 6.91135 18.4623C3.24224 11.707 6.27875 4.98442 10.4539 2.16422C15.1352 -1.01669 21.2399 -0.393629 25.162 3.70549C29.0525 7.73902 29.5902 14.1009 26.5221 18.8886C23.7386 23.2829 17.2228 26.267 10.8335 22.5286ZM22.3785 15.9701C24.2447 15.9701 25.763 14.396 25.763 12.494C25.7314 10.592 24.2131 9.05074 22.4102 9.05074C20.544 9.05074 19.0257 10.592 19.0257 12.5268C18.9941 14.4288 20.5124 15.9701 22.3785 15.9701ZM10.5488 15.9701C11.7824 15.9701 12.7313 15.2814 12.9527 14.1664C13.1425 13.1827 12.5415 12.33 11.3712 11.8381C11.1182 11.7398 10.8651 11.6414 10.6121 11.5102C10.5488 11.4774 10.4856 11.4446 10.4223 11.4118C10.3907 11.379 10.3274 11.379 10.2958 11.3462C10.2642 11.3135 10.2325 11.2807 10.2325 11.2151C10.2009 11.1495 10.2009 11.0839 10.2009 11.0183C10.2009 10.9199 10.1693 10.8216 10.2009 10.7232C10.2009 10.6904 10.2009 10.6904 10.2325 10.6576L10.2642 10.6248C10.2958 10.592 10.2958 10.592 10.3274 10.5592L10.359 10.5264C10.3907 10.5264 10.4539 10.5264 10.4856 10.5264C10.5172 10.5264 10.5805 10.5264 10.6121 10.5592C10.7386 10.592 10.8651 10.6248 10.9917 10.6576C11.1814 10.7232 11.3712 10.7888 11.561 10.8871C11.9722 11.0839 12.3201 11.1167 12.6364 10.7232C12.8895 10.3625 12.7946 9.87057 12.3518 9.60822C11.9722 9.37867 11.561 9.14912 11.1182 9.05074C9.88459 8.7556 8.71428 9.41146 8.4296 10.5264C8.17656 11.543 8.77754 12.4612 10.0111 12.9203C10.359 13.0515 10.7386 13.1827 11.0865 13.3466C11.2447 13.445 11.4661 13.6745 11.4345 13.8385C11.4028 14.0353 11.1814 14.2648 10.9917 14.3304C10.3907 14.56 9.85297 14.3304 9.37851 13.9041C8.96732 13.5434 8.55613 13.5434 8.27145 13.8713C7.95515 14.232 7.98678 14.6583 8.39797 15.0519C9.03058 15.6749 9.75807 15.9701 10.5488 15.9701ZM15.7362 13.2482C16.179 13.2482 16.5586 13.2482 16.9381 13.2482C17.4442 13.2482 17.7922 12.9203 17.7605 12.4612C17.6973 11.9693 17.4442 11.7398 16.9381 11.7398C16.5586 11.7398 16.1474 11.7398 15.7678 11.7398C15.7678 11.3135 15.7678 10.9527 15.7678 10.5592C16.2423 10.5592 16.7167 10.592 17.1596 10.5592C17.6656 10.5264 17.9503 10.2313 17.9187 9.80498C17.887 9.31308 17.6024 9.05074 17.1279 9.05074C16.4637 9.05074 15.7678 9.05074 15.1036 9.05074C14.5659 9.05074 14.2812 9.31308 14.2812 9.87056C14.2812 11.6414 14.2812 13.3794 14.2812 15.1502C14.2812 15.7077 14.5659 15.9701 15.1036 15.9701C15.7362 15.9701 16.3688 15.9701 17.0014 15.9701C17.5707 15.9701 17.887 15.7077 17.9187 15.2158C17.9187 14.7239 17.634 14.4616 17.033 14.4288C16.5902 14.4288 16.179 14.4288 15.7362 14.4288C15.7362 14.0025 15.7362 13.6745 15.7362 13.2482Z" fill="#273742"/>
<path d="M6.72157 27.5132C5.99407 28.6937 4.60234 29.3496 3.33713 29.0872C1.85051 28.7921 0.838343 27.7427 0.55367 26.2015C0.300628 24.8569 0.964864 23.4141 2.07192 22.6926C3.62181 24.2995 5.17169 25.9063 6.72157 27.5132Z" fill="#273742"/>
<path d="M20.5124 12.5268C20.5124 11.4446 21.3031 10.5592 22.3469 10.5264C23.3591 10.4936 24.2447 11.379 24.2447 12.4284C24.2764 13.5434 23.4223 14.4288 22.3785 14.4288C21.3664 14.4944 20.5124 13.609 20.5124 12.5268Z" fill="#273742"/>
</svg>
