<svg width="37" height="30" viewBox="0 0 37 30" fill="none" xmlns="http://www.w3.org/2000/svg">
<path d="M0.5 10.8918C12.5439 10.8918 24.4561 10.8918 36.4342 10.8918C36.4342 11.1462 36.4342 11.4006 36.4342 11.5913C36.4342 16.1064 36.4342 20.6215 36.4342 25.073C36.4342 27.4895 34.723 29.1429 32.2879 29.1429C23.074 29.1429 13.8601 29.1429 4.71207 29.1429C2.21115 29.2065 0.5 27.4895 0.5 25.1366C0.5 20.6215 0.5 16.1064 0.5 11.5913C0.5 11.4006 0.5 11.1462 0.5 10.8918ZM23.074 17.9506C22.8108 17.6327 22.6792 17.3783 22.4817 17.1875C21.8894 16.6152 21.3629 16.0428 20.7048 15.5341C20.3099 15.1525 19.8492 15.2161 19.4543 15.5341C19.0594 15.8521 19.0594 16.2972 19.3227 16.6788C19.4543 16.8695 19.6517 17.0603 19.8492 17.2511C20.5073 17.8234 21.1654 18.4594 21.8894 19.0953C21.0338 19.8584 20.3757 20.5579 19.6517 21.1939C19.1252 21.7026 18.9936 22.2749 19.3885 22.6565C19.7834 23.1016 20.3757 23.038 20.968 22.4657C21.692 21.7662 22.3501 21.0667 23.1399 20.3671C23.9296 21.1303 24.5878 21.8298 25.3117 22.5293C25.904 23.038 26.4305 23.1016 26.8254 22.7201C27.2203 22.2749 27.2203 21.8298 26.628 21.2574C25.904 20.5579 25.1801 19.922 24.5219 19.2861C24.5219 19.1589 24.5219 19.0953 24.5877 19.0953C25.3117 18.3958 26.0356 17.6962 26.7596 16.9967C27.2203 16.5516 27.2861 15.9792 26.8912 15.5977C26.4963 15.1525 25.904 15.2161 25.4433 15.7249C24.6536 16.3608 23.9296 17.0603 23.074 17.9506ZM17.0192 18.0778C17.0192 17.5691 17.0192 17.0603 17.0192 16.488C17.0192 16.4244 17.0192 16.4244 17.0192 16.3608C17.0192 15.6613 16.6243 15.2161 16.0978 15.2161C15.5055 15.2161 15.1764 15.6613 15.1764 16.3608C15.1764 17.3783 15.1764 18.3322 15.1764 19.3497C15.1764 20.3671 14.4525 21.1303 13.4653 21.1303C12.4781 21.1303 11.7541 20.3671 11.7541 19.3497C11.7541 18.3322 11.7541 17.2511 11.7541 16.2336C11.7541 15.6613 11.425 15.2797 10.8327 15.2161C10.3062 15.1525 9.84552 15.5341 9.84552 16.17C9.84552 17.4419 9.77971 18.7137 9.91133 19.9856C10.1088 21.8298 11.6883 23.038 13.5969 22.9744C15.3739 22.9109 16.8218 21.5754 16.9534 19.7948C17.0192 19.2225 17.0192 18.6501 17.0192 18.0778Z" fill="#273742"/>
<path d="M36.4342 9.04764C24.3903 9.04764 12.4781 9.04764 0.565814 9.04764C0.565814 7.13985 0.565814 5.23207 0.565814 3.32429C0.565814 3.2607 0.565814 3.2607 0.631627 3.1971C1.02651 1.41651 2.54022 0.144653 4.44881 0.144653C13.7943 0.144653 23.1399 0.144653 32.5512 0.144653C34.7888 0.144653 36.5 1.86166 36.5 4.02381C36.5 5.67722 36.4342 7.33063 36.4342 9.04764ZM26.1673 4.59615C24.7194 4.59615 23.2057 4.59615 21.7578 4.59615C21.0338 4.59615 20.6389 4.91411 20.6389 5.48644C20.6389 6.05878 21.0338 6.37674 21.7578 6.37674C24.7194 6.37674 27.681 6.37674 30.5768 6.37674C31.3007 6.37674 31.7614 5.99518 31.6956 5.48644C31.6956 4.9777 31.2349 4.59615 30.511 4.59615C29.0631 4.59615 27.6152 4.59615 26.1673 4.59615ZM14.3867 6.37674C14.9132 6.37674 15.3739 5.99518 15.3739 5.48644C15.3739 4.9777 14.979 4.59614 14.4525 4.53255C13.9918 4.53255 13.4653 4.91411 13.4653 5.42285C13.3995 5.99519 13.8601 6.37674 14.3867 6.37674ZM10.3062 4.59615C9.77971 4.59615 9.38483 5.04129 9.38483 5.48644C9.38483 5.99518 9.77971 6.37674 10.3062 6.37674C10.8327 6.37674 11.2276 5.99518 11.2276 5.48644C11.2276 5.04129 10.8327 4.59615 10.3062 4.59615ZM7.14717 5.55004C7.14717 5.04129 6.75228 4.65974 6.22578 4.65974C5.76508 4.59614 5.30439 5.04129 5.30439 5.48644C5.30439 5.99518 5.69927 6.37674 6.22578 6.37674C6.75228 6.44033 7.14717 6.05878 7.14717 5.55004Z" fill="#273742"/>
</svg>
